<?xml version="1.0" encoding="UTF-8" standalone="no"?>
<!-- Created with Inkscape (http://www.inkscape.org/) -->

<svg
   xmlns:dc="http://purl.org/dc/elements/1.1/"
   xmlns:cc="http://creativecommons.org/ns#"
   xmlns:rdf="http://www.w3.org/1999/02/22-rdf-syntax-ns#"
   xmlns:svg="http://www.w3.org/2000/svg"
   xmlns="http://www.w3.org/2000/svg"
   xmlns:sodipodi="http://sodipodi.sourceforge.net/DTD/sodipodi-0.dtd"
   xmlns:inkscape="http://www.inkscape.org/namespaces/inkscape"
   width="215.3524mm"
   height="201.3914mm"
   viewBox="0 0 215.3524 201.3914"
   version="1.1"
   id="svg8"
   inkscape:version="0.92.4 (5da689c313, 2019-01-14)"
   sodipodi:docname="fig5.svg">
  <defs
     id="defs2" />
  <sodipodi:namedview
     id="base"
     pagecolor="#ffffff"
     bordercolor="#666666"
     borderopacity="1.0"
     inkscape:pageopacity="0.0"
     inkscape:pageshadow="2"
     inkscape:zoom="0.7"
     inkscape:cx="300.03423"
     inkscape:cy="448.43805"
     inkscape:document-units="mm"
     inkscape:current-layer="layer1"
     showgrid="false"
     fit-margin-top="0"
     fit-margin-left="0"
     fit-margin-right="0"
     fit-margin-bottom="0"
     inkscape:window-width="1920"
     inkscape:window-height="1051"
     inkscape:window-x="0"
     inkscape:window-y="0"
     inkscape:window-maximized="1" />
  <metadata
     id="metadata5">
    <rdf:RDF>
      <cc:Work
         rdf:about="">
        <dc:format>image/svg+xml</dc:format>
        <dc:type
           rdf:resource="http://purl.org/dc/dcmitype/StillImage" />
        <dc:title />
      </cc:Work>
    </rdf:RDF>
  </metadata>
  <g
     inkscape:label="Layer 1"
     inkscape:groupmode="layer"
     id="layer1"
     transform="translate(9.3586501,-14.471514)">
    <path
       style="fill:none;stroke:#000000;stroke-width:0.41547152px;stroke-linecap:butt;stroke-linejoin:miter;stroke-opacity:1"
       d="M 193.55432,120.74452 H 3.317545 v 0"
       id="path823-6-6"
       inkscape:connector-curvature="0" />
    <path
       style="fill:none;stroke:#000000;stroke-width:0.41547152px;stroke-linecap:butt;stroke-linejoin:miter;stroke-opacity:1"
       d="m 98.435934,25.62613 v 190.23678 0"
       id="path823-6"
       inkscape:connector-curvature="0" />
    <ellipse
       style="opacity:1;fill:#ffffff;fill-opacity:1;stroke:none;stroke-width:0.25253767;stroke-linecap:round;stroke-miterlimit:4;stroke-dasharray:none;stroke-dashoffset:0;stroke-opacity:1"
       id="path873-3-7"
       cx="-174.58258"
       cy="23.678823"
       rx="61.191177"
       ry="39.414566"
       transform="matrix(-0.58995697,-0.80743469,0.69830403,-0.71580129,0,0)" />
    <ellipse
       style="opacity:0.65399996;fill:#ff6600;fill-opacity:1;stroke:none;stroke-width:0.31712005;stroke-linecap:round;stroke-miterlimit:4;stroke-dasharray:none;stroke-dashoffset:0;stroke-opacity:1"
       id="path873"
       cx="-1.0625153"
       cy="-155.8584"
       rx="75.520981"
       ry="28.294348"
       transform="matrix(-0.73169854,0.68162838,-0.62658472,-0.77935332,0,0)" />
    <ellipse
       style="opacity:0.65399996;fill:#008000;fill-opacity:1;stroke:none;stroke-width:0.25253767;stroke-linecap:round;stroke-miterlimit:4;stroke-dasharray:none;stroke-dashoffset:0;stroke-opacity:1"
       id="path873-3"
       cx="-174.24915"
       cy="24.333359"
       rx="61.191177"
       ry="39.414566"
       transform="matrix(-0.58995697,-0.80743468,0.69830402,-0.7158013,0,0)" />
    <text
       xml:space="preserve"
       style="font-style:normal;font-weight:normal;font-size:10.58333302px;line-height:1.25;font-family:sans-serif;letter-spacing:0px;word-spacing:0px;fill:#000000;fill-opacity:1;stroke:none;stroke-width:0.26458332"
       x="97.040359"
       y="-198.94228"
       id="text857"
       transform="rotate(90)"><tspan
         sodipodi:role="line"
         id="tspan855"
         x="97.040359"
         y="-198.94228"
         style="font-style:normal;font-variant:normal;font-weight:bold;font-stretch:normal;font-size:7.05555534px;font-family:sans-serif;-inkscape-font-specification:'sans-serif Bold';stroke-width:0.26458332">Host health</tspan></text>
    <text
       xml:space="preserve"
       style="font-style:normal;font-weight:normal;font-size:10.58333302px;line-height:1.25;font-family:sans-serif;letter-spacing:0px;word-spacing:0px;fill:#000000;fill-opacity:1;stroke:none;stroke-width:0.26458332"
       x="61.640244"
       y="19.832083"
       id="text861"><tspan
         sodipodi:role="line"
         id="tspan859"
         x="61.640244"
         y="19.832083"
         style="font-style:normal;font-variant:normal;font-weight:bold;font-stretch:normal;font-size:7.05555534px;font-family:sans-serif;-inkscape-font-specification:'sans-serif Bold';stroke-width:0.26458332">Infection intensity</tspan></text>
    <text
       xml:space="preserve"
       style="font-style:normal;font-weight:normal;font-size:10.58333302px;line-height:1.25;font-family:sans-serif;letter-spacing:0px;word-spacing:0px;fill:#000000;fill-opacity:1;stroke:none;stroke-width:0.26458332"
       x="43.885738"
       y="154.52927"
       id="text877"><tspan
         sodipodi:role="line"
         id="tspan875"
         x="43.885738"
         y="154.52927"
         style="font-style:italic;font-variant:normal;font-weight:normal;font-stretch:normal;font-size:7.05555534px;font-family:sans-serif;-inkscape-font-specification:'sans-serif Italic';fill:#000000;stroke-width:0.26458332">E. falciformis</tspan></text>
    <text
       xml:space="preserve"
       style="font-style:normal;font-weight:normal;font-size:10.58333302px;line-height:1.25;font-family:sans-serif;letter-spacing:0px;word-spacing:0px;fill:#000000;fill-opacity:1;stroke:none;stroke-width:0.26458332"
       x="-9.7548361"
       y="42.937389"
       id="text914"><tspan
         sodipodi:role="line"
         id="tspan912"
         x="-9.7548361"
         y="42.937389"
         style="font-size:7.05555534px;stroke-width:0.26458332">Low resistance</tspan><tspan
         sodipodi:role="line"
         x="-9.7548361"
         y="56.166557"
         style="font-size:7.05555534px;stroke-width:0.26458332"
         id="tspan916">Poor health</tspan></text>
    <text
       xml:space="preserve"
       style="font-style:normal;font-weight:normal;font-size:10.58333302px;line-height:1.25;font-family:sans-serif;letter-spacing:0px;word-spacing:0px;fill:#000000;fill-opacity:1;stroke:none;stroke-width:0.26458332"
       x="151.32977"
       y="42.937389"
       id="text914-5"><tspan
         sodipodi:role="line"
         id="tspan912-6"
         x="151.32977"
         y="42.937389"
         style="font-size:7.05555534px;stroke-width:0.26458332">Low resistance</tspan><tspan
         sodipodi:role="line"
         x="151.32977"
         y="56.166557"
         style="font-size:7.05555534px;stroke-width:0.26458332"
         id="tspan916-2">Good health</tspan></text>
    <text
       xml:space="preserve"
       style="font-style:normal;font-weight:normal;font-size:10.58333302px;line-height:1.25;font-family:sans-serif;letter-spacing:0px;word-spacing:0px;fill:#000000;fill-opacity:1;stroke:none;stroke-width:0.26458332"
       x="150.0172"
       y="190.38425"
       id="text914-5-9"><tspan
         sodipodi:role="line"
         id="tspan912-6-1"
         x="150.0172"
         y="190.38425"
         style="font-size:7.05555534px;stroke-width:0.26458332">High resistance</tspan><tspan
         sodipodi:role="line"
         x="150.0172"
         y="203.61342"
         style="font-size:7.05555534px;stroke-width:0.26458332"
         id="tspan916-2-2">Good health</tspan></text>
    <text
       xml:space="preserve"
       style="font-style:normal;font-weight:normal;font-size:10.58333302px;line-height:1.25;font-family:sans-serif;letter-spacing:0px;word-spacing:0px;fill:#000000;fill-opacity:1;stroke:none;stroke-width:0.26458332"
       x="-10.051114"
       y="190.38425"
       id="text914-5-9-7"><tspan
         sodipodi:role="line"
         id="tspan912-6-1-0"
         x="-10.051114"
         y="190.38425"
         style="font-size:7.05555534px;stroke-width:0.26458332">High resistance</tspan><tspan
         sodipodi:role="line"
         x="-10.051114"
         y="203.61342"
         style="font-size:7.05555534px;stroke-width:0.26458332"
         id="tspan916-2-2-9">Poor health</tspan></text>
    <text
       xml:space="preserve"
       style="font-style:normal;font-weight:normal;font-size:10.58333302px;line-height:1.25;font-family:sans-serif;letter-spacing:0px;word-spacing:0px;fill:#000000;fill-opacity:1;stroke:none;stroke-width:0.26458332"
       x="107.78865"
       y="114.75118"
       id="text877-5"><tspan
         sodipodi:role="line"
         id="tspan875-3"
         x="107.78865"
         y="114.75118"
         style="font-style:italic;font-variant:normal;font-weight:normal;font-stretch:normal;font-size:7.05555534px;font-family:sans-serif;-inkscape-font-specification:'sans-serif Italic';fill:#000000;stroke-width:0.26458332">E. ferrisi</tspan></text>
    <path
       inkscape:connector-curvature="0"
       id="path704"
       style="fill:#000080;fill-opacity:1;fill-rule:nonzero;stroke:none;stroke-width:0.20393218"
       d="m 106.27552,123.16138 -0.11868,0.23737 c -4.27626,-1.98752 -3.34898,-6.44609 -6.483624,-9.07008 l 1.457914,2.1111 c 1.51502,3.57676 1.72384,6.19668 4.99634,7.55406 l 0.98132,1.36798 1.87373,1.75483 0.38625,0.0296 -0.0598,-0.38645 0.23819,0.0598 0.32752,0.3267 0.11869,-0.17864 -0.11869,-0.35688 -0.32752,-0.0891 -0.56469,0.14888 -0.77351,-1.0109 6.06698,0.65401 1.36777,-0.29713 0.62445,0.62465 0.39032,0.55123 0.65095,0.0135 c 0,0 0.63892,-0.0644 0.87772,-0.1609 l 0.75211,0.22942 c 0.8922,0.0296 0.22697,-0.68032 0.22697,-0.68032 l -1.45852,0.0192 -0.57366,-0.54246 c 0.71866,-0.58386 1.9343,-1.15039 2.8942,-0.90424 l 1.10083,0.23758 0.3267,0.17844 -0.20801,-0.56489 0.6844,0.53532 c 1.29435,-0.80941 1.22033,-1.17098 0.50493,-2.25998 -0.56244,-1.29599 -1.08165,-1.9031 -2.20022,-2.61686 0.0924,-0.65951 -0.0461,-1.01884 -0.36565,-1.55988 -0.40623,-0.48189 -2.15883,-0.72804 -2.30851,-0.12093 0.10502,0.43805 0.65951,0.0518 1.20442,0.39991 l 0.99335,1.3223 c -0.70886,-1.02598 -0.49474,-1.90554 -1.80194,-1.82499 -0.7519,0.0573 -1.4777,0.8508 -1.12632,1.56049 0.19517,0.3577 0.8969,0.89934 0.99968,0.97826 0.86038,0.65891 -0.0795,-0.13215 -1.31924,-0.56876 -4.3254,-1.01966 -7.37419,-1.51746 -10.2372,2.29893 z" />
    <path
       inkscape:connector-curvature="0"
       id="path752"
       style="fill:#ff0000;fill-opacity:1;fill-rule:nonzero;stroke:none;stroke-width:0.20393218"
       d="m 140.18629,123.16137 0.11868,0.23738 c 4.27626,-1.98753 3.34898,-6.4461 6.48362,-9.07009 l -1.45791,2.1111 c -1.51501,3.57677 -1.72384,6.19669 -4.99634,7.55407 l -0.98132,1.36797 -1.87373,1.75484 -0.38625,0.0296 0.0598,-0.38645 -0.2382,0.0597 -0.32751,0.3267 -0.11869,-0.17864 0.11869,-0.35688 0.32751,-0.0891 0.56469,0.14887 0.77351,-1.01089 -6.06698,0.65401 -1.36777,-0.29713 -0.62444,0.62464 -0.39033,0.55123 -0.65095,0.0135 c 0,0 -0.63892,-0.0644 -0.87772,-0.1609 l -0.75211,0.22942 c -0.8922,0.0296 -0.22697,-0.68031 -0.22697,-0.68031 l 1.45852,0.0192 0.57366,-0.54246 c -0.71866,-0.58386 -1.9343,-1.15038 -2.8942,-0.90423 l -1.10083,0.23758 -0.3267,0.17844 0.20801,-0.56489 -0.68439,0.53532 c -1.29436,-0.80941 -1.22034,-1.17098 -0.50494,-2.25998 0.56245,-1.29599 1.08247,-1.9031 2.20104,-2.61686 -0.0924,-0.65952 0.0461,-1.01884 0.36565,-1.55988 0.40542,-0.48189 2.15801,-0.72804 2.3077,-0.12093 -0.10523,0.43805 -0.6587,0.0518 -1.20442,0.39991 l -0.99336,1.3223 c 0.70887,-1.02599 0.49474,-1.90555 1.80276,-1.82499 0.75108,0.0573 1.47688,0.8508 1.1255,1.56049 -0.19435,0.3577 -0.89689,0.89934 -0.99967,0.97826 -0.85958,0.65891 0.0795,-0.13215 1.31923,-0.56877 4.3254,-1.01965 7.37419,-1.51745 10.2372,2.29894 z" />
    <path
       inkscape:connector-curvature="0"
       id="path752-3"
       style="fill:#ff0000;fill-opacity:1;fill-rule:nonzero;stroke:none;stroke-width:0.2039322"
       d="m 61.443836,165.68365 0.11868,0.23738 c 4.27626,-1.98753 3.34898,-6.4461 6.48362,-9.07009 l -1.45791,2.1111 c -1.51501,3.57677 -1.72384,6.19669 -4.99634,7.55407 l -0.98132,1.36797 -1.87373,1.75484 -0.38625,0.0296 0.0598,-0.38645 -0.2382,0.0597 -0.32751,0.3267 -0.11869,-0.17864 0.11869,-0.35688 0.32751,-0.0891 0.56469,0.14887 0.77351,-1.01089 -6.06698,0.65401 -1.36777,-0.29713 -0.62444,0.62464 -0.39033,0.55123 -0.65095,0.0135 c 0,0 -0.63892,-0.0644 -0.87772,-0.1609 l -0.75211,0.22942 c -0.8922,0.0296 -0.22697,-0.68031 -0.22697,-0.68031 l 1.45852,0.0192 0.57366,-0.54246 c -0.71866,-0.58386 -1.9343,-1.15038 -2.8942,-0.90423 l -1.10083,0.23758 -0.3267,0.17844 0.20801,-0.56489 -0.68439,0.53532 c -1.29436,-0.80941 -1.22034,-1.17098 -0.50494,-2.25998 0.56245,-1.29599 1.08247,-1.9031 2.20104,-2.61686 -0.0924,-0.65952 0.0461,-1.01884 0.36565,-1.55987 0.40542,-0.4819 2.15801,-0.72804 2.3077,-0.12094 -0.10523,0.43805 -0.6587,0.0518 -1.20442,0.39991 l -0.99336,1.3223 c 0.70887,-1.02599 0.49474,-1.90554 1.80276,-1.82499 0.75108,0.0573 1.47688,0.85081 1.1255,1.56049 -0.19435,0.3577 -0.89689,0.89934 -0.99967,0.97826 -0.85958,0.65891 0.0795,-0.13215 1.31923,-0.56877 4.3254,-1.01965 7.37419,-1.51745 10.2372,2.29894 z" />
    <path
       inkscape:connector-curvature="0"
       id="path704-6"
       style="fill:#000080;fill-opacity:1;fill-rule:nonzero;stroke:none;stroke-width:0.2039322"
       d="m 134.52934,73.079443 -0.11868,0.23737 c -4.27625,-1.98752 -3.34898,-6.446092 -6.48361,-9.070086 l 1.45791,2.111102 c 1.51501,3.576767 1.72383,6.196684 4.99633,7.554064 l 0.98132,1.36798 1.87373,1.75483 0.38625,0.0296 -0.0598,-0.38645 0.23819,0.0598 0.32752,0.3267 0.11869,-0.17864 -0.11869,-0.35688 -0.32752,-0.0891 -0.56469,0.14888 -0.77351,-1.0109 6.06698,0.65401 1.36777,-0.29713 0.62445,0.62465 0.39032,0.55123 0.65095,0.0135 c 0,0 0.63892,-0.0644 0.87772,-0.1609 l 0.75211,0.22942 c 0.8922,0.0296 0.22697,-0.68032 0.22697,-0.68032 l -1.45852,0.0192 -0.57366,-0.54246 c 0.71866,-0.58386 1.9343,-1.15039 2.8942,-0.90424 l 1.10083,0.23758 0.3267,0.17844 -0.20801,-0.56489 0.6844,0.53532 c 1.29435,-0.80941 1.22033,-1.17098 0.50493,-2.25998 -0.56244,-1.29599 -1.08165,-1.9031 -2.20022,-2.616858 0.0924,-0.659515 -0.0461,-1.018847 -0.36565,-1.559879 -0.40623,-0.48189 -2.15883,-0.72804 -2.30851,-0.120934 0.10502,0.438049 0.65951,0.0518 1.20442,0.399913 l 0.99335,1.322296 c -0.70886,-1.02598 -0.49474,-1.905539 -1.80194,-1.82499 -0.7519,0.05729 -1.4777,0.850805 -1.12632,1.560491 0.19517,0.357701 0.8969,0.899341 0.99968,0.978261 0.86038,0.65891 -0.0795,-0.13215 -1.31924,-0.56876 -4.3254,-1.019659 -7.37419,-1.517458 -10.2372,2.29893 z" />
  </g>
</svg>
